<?xml version="1.0" encoding="UTF-8"?>
<svg xmlns="http://www.w3.org/2000/svg" xmlns:xlink="http://www.w3.org/1999/xlink" width="20px" height="20px" viewBox="0 0 20 20" version="1.1">
<g id="surface1">
<path style=" stroke:none;fill-rule:nonzero;fill:rgb(0%,0%,0%);fill-opacity:1;" d="M 15.832031 0 L 4.167969 0 C 1.867188 0 0 1.867188 0 4.167969 L 0 15.832031 C 0 18.132812 1.867188 20 4.167969 20 L 15.832031 20 C 18.136719 20 20 18.132812 20 15.832031 L 20 4.167969 C 20 1.867188 18.136719 0 15.832031 0 Z M 6.667969 15.832031 L 4.167969 15.832031 L 4.167969 6.667969 L 6.667969 6.667969 Z M 5.417969 5.609375 C 4.613281 5.609375 3.957031 4.953125 3.957031 4.140625 C 3.957031 3.328125 4.613281 2.671875 5.417969 2.671875 C 6.222656 2.671875 6.875 3.328125 6.875 4.140625 C 6.875 4.953125 6.222656 5.609375 5.417969 5.609375 Z M 16.667969 15.832031 L 14.167969 15.832031 L 14.167969 11.164062 C 14.167969 8.355469 10.832031 8.570312 10.832031 11.164062 L 10.832031 15.832031 L 8.332031 15.832031 L 8.332031 6.667969 L 10.832031 6.667969 L 10.832031 8.136719 C 11.996094 5.984375 16.667969 5.824219 16.667969 10.199219 Z M 16.667969 15.832031 "/>
</g>
</svg>
